HIERARCHY
ROOT Hips
{
	OFFSET 0.000000 0.000000 0.000000
	CHANNELS 6 Xposition Yposition Zposition Zrotation Yrotation Xrotation 
	JOINT LHipJoint
	{
		OFFSET 0.000000 0.000000 0.000000
		CHANNELS 3 Zrotation Yrotation Xrotation
		JOINT LeftUpLeg
		{
			OFFSET 1.363060 -1.794630 0.839290
			CHANNELS 3 Zrotation Yrotation Xrotation
			JOINT LeftLeg
			{
				OFFSET 2.448110 -6.726130 0.000000
				CHANNELS 3 Zrotation Yrotation Xrotation
				JOINT LeftFoot
				{
					OFFSET 2.562200 -7.039590 0.000000
					CHANNELS 3 Zrotation Yrotation Xrotation
					JOINT LeftToeBase
					{
						OFFSET 0.157640 -0.433110 2.322550
						CHANNELS 3 Zrotation Yrotation Xrotation
						End Site
						{
							OFFSET 0.000000 0.000000 0.000000
						}
					}
				}
			}
		}
	}
	JOINT RHipJoint
	{
		OFFSET 0.000000 0.000000 0.000000
		CHANNELS 3 Zrotation Yrotation Xrotation
		JOINT RightUpLeg
		{
			OFFSET -1.305520 -1.794630 0.839290
			CHANNELS 3 Zrotation Yrotation Xrotation
			JOINT RightLeg
			{
				OFFSET -2.542530 -6.985550 0.000000
				CHANNELS 3 Zrotation Yrotation Xrotation
				JOINT RightFoot
				{
					OFFSET -2.568260 -7.056230 0.000000
					CHANNELS 3 Zrotation Yrotation Xrotation
					JOINT RightToeBase
					{
						OFFSET -0.164730 -0.452590 2.363150
						CHANNELS 3 Zrotation Yrotation Xrotation
						End Site
						{
							OFFSET 0.000000 0.000000 0.000000
						}
					}
				}
			}
		}
	}
	JOINT LowerBack
	{
		OFFSET 0.000000 0.000000 0.000000
		CHANNELS 3 Zrotation Yrotation Xrotation
		JOINT Spine
		{
			OFFSET 0.028270 2.035590 -0.193380
			CHANNELS 3 Zrotation Yrotation Xrotation
			JOINT Spine1
			{
				OFFSET 0.056720 2.048850 -0.042750
				CHANNELS 3 Zrotation Yrotation Xrotation
				JOINT Neck
				{
					OFFSET 0.000000 0.000000 0.000000
					CHANNELS 3 Zrotation Yrotation Xrotation
					JOINT Neck1
					{
						OFFSET -0.054170 1.746240 0.172020
						CHANNELS 3 Zrotation Yrotation Xrotation
						JOINT Head
						{
							OFFSET 0.104070 1.761360 -0.123970
							CHANNELS 3 Zrotation Yrotation Xrotation
							End Site
							{
								OFFSET 0.000000 0.000000 0.000000
							}
						}
					}
				}
				JOINT LeftShoulder
				{
					OFFSET 0.000000 0.000000 0.000000
					CHANNELS 3 Zrotation Yrotation Xrotation
					JOINT LeftArm
					{
						OFFSET 3.362410 1.200890 -0.311210
						CHANNELS 3 Zrotation Yrotation Xrotation
						JOINT LeftForeArm
						{
							OFFSET 4.983000 -0.000000 -0.000000
							CHANNELS 3 Zrotation Yrotation Xrotation
							JOINT LeftHand
							{
								OFFSET 3.483560 -0.000000 -0.000000
								CHANNELS 3 Zrotation Yrotation Xrotation
								JOINT LeftFingerBase
								{
									OFFSET 0.000000 0.000000 0.000000
									CHANNELS 3 Zrotation Yrotation Xrotation
									JOINT LeftHandIndex1
									{
										OFFSET 0.715260 -0.000000 -0.000000
										CHANNELS 3 Zrotation Yrotation Xrotation
										End Site
										{
											OFFSET 0.000000 0.000000 0.000000
										}
									}
								}
								JOINT LThumb
								{
									OFFSET 0.000000 0.000000 0.000000
									CHANNELS 3 Zrotation Yrotation Xrotation
									End Site
									{
										OFFSET 0.000000 0.000000 0.000000
									}
								}
							}
						}
					}
				}
				JOINT RightShoulder
				{
					OFFSET 0.000000 0.000000 0.000000
					CHANNELS 3 Zrotation Yrotation Xrotation
					JOINT RightArm
					{
						OFFSET -3.136600 1.374050 -0.404650
						CHANNELS 3 Zrotation Yrotation Xrotation
						JOINT RightForeArm
						{
							OFFSET -5.241900 -0.000000 -0.000000
							CHANNELS 3 Zrotation Yrotation Xrotation
							JOINT RightHand
							{
								OFFSET -3.444170 -0.000000 -0.000000
								CHANNELS 3 Zrotation Yrotation Xrotation
								JOINT RightFingerBase
								{
									OFFSET 0.000000 0.000000 0.000000
									CHANNELS 3 Zrotation Yrotation Xrotation
									JOINT RightHandIndex1
									{
										OFFSET -0.622530 -0.000000 -0.000000
										CHANNELS 3 Zrotation Yrotation Xrotation
										End Site
										{
											OFFSET 0.000000 0.000000 0.000000
										}
									}
								}
								JOINT RThumb
								{
									OFFSET 0.000000 0.000000 0.000000
									CHANNELS 3 Zrotation Yrotation Xrotation
									End Site
									{
										OFFSET 0.000000 0.000000 0.000000
									}
								}
							}
						}
					}
				}
			}
		}
	}
}
MOTION
Frames: 5
Frame Time: 0.008333
12.706924 16.367397 -11.185222 3.514406 0.315355 -0.677011 -11.445358 -8.797349 -8.981236 0.969793 2.389040 -32.597421 -4.104233 -0.014416 -3.897877 2.174757 19.618856 49.460741 0.000000 0.000000 0.000000 6.424559 8.325997 -7.755899 -0.414052 -6.007997 -33.045675 3.599138 0.374837 -3.397481 -3.114507 -20.159669 51.454205 0.000000 0.000000 0.000000 -3.270194 0.866166 26.516994 -0.064994 0.550905 -1.925752 3.093470 0.578438 1.028665 -6.785571 0.647161 -14.459403 4.621190 1.202324 17.720510 0.961800 0.573200 12.191600 5.185871 -18.120798 -0.295101 5.377909 -35.519005 18.270578 22.447533 -30.324106 -14.189092 -3.555102 6.567744 18.254138 42.537011 -22.191571 -26.660300 -7.125000 0.000000 0.000000 10.312400 -6.554400 -11.601900 -1.580879 18.900809 1.370657 -10.298450 31.658746 22.923853 -28.717163 34.454561 -15.654917 6.441173 7.291128 4.230653 -22.895550 -17.583903 13.118400 7.125000 0.000000 0.000000 0.660300 -57.930600 -0.209000 
12.662149 16.330856 -11.173899 1.513024 0.385122 -1.187999 -10.723893 -8.746090 -9.112246 2.649839 2.417667 -32.104228 -3.757505 0.082791 -4.111517 2.343804 20.077994 50.118326 0.000000 0.000000 0.000000 7.290391 8.245352 -7.450240 1.240660 -6.015243 -33.033040 3.975191 0.410856 -3.103089 -2.926552 -19.797747 50.990698 0.000000 0.000000 0.000000 -1.266105 0.717636 26.903059 0.134608 1.099483 -1.838178 2.824974 0.405838 1.035434 -6.704475 0.557520 -14.398100 4.605163 1.071988 17.683644 0.946800 0.521700 12.103100 5.294417 -18.273743 -0.249963 5.384034 -35.665730 18.366984 22.565520 -30.365606 -14.183533 -3.580042 6.440673 18.252875 42.424299 -21.626006 -26.019000 -7.125000 0.000000 0.000000 10.422500 -5.682400 -11.588300 -1.503283 18.683327 1.373237 -10.355414 31.592683 22.890855 -28.676194 34.448392 -15.654107 6.512524 7.297232 4.201176 -23.121276 -17.593309 13.279100 7.125000 0.000000 0.000000 0.319900 -58.007500 -0.101800 
12.653657 16.340120 -11.176601 2.302255 0.135699 -0.954175 -10.840519 -8.785063 -9.084567 2.023406 2.741172 -32.435459 -3.851598 0.055768 -4.047894 2.300112 19.955316 49.952126 0.000000 0.000000 0.000000 7.007729 8.367420 -7.638448 0.677015 -5.755734 -33.074890 3.885472 0.399178 -3.235401 -2.957263 -19.888237 51.056669 0.000000 0.000000 0.000000 -2.263535 0.921039 26.645838 0.018064 1.075471 -1.852238 3.077767 0.529640 1.112830 -6.755820 0.469437 -14.450499 4.633000 0.943702 17.663000 0.943000 0.472400 12.083200 5.268799 -18.182635 -0.251531 5.450061 -35.675527 18.378780 22.617372 -30.411863 -14.197466 -3.584407 6.367620 18.323448 42.328801 -21.345054 -25.649800 -7.125000 0.000000 0.000000 10.454900 -5.206800 -11.547000 -1.526740 18.720089 1.401189 -10.381259 31.609573 22.784071 -28.681983 34.449055 -15.667582 6.571739 7.259226 4.352885 -23.299705 -17.659048 13.412700 7.125000 0.000000 0.000000 0.082900 -58.101000 -0.026600 
12.665751 16.339091 -11.173128 2.527023 0.254668 -0.952789 -11.030017 -8.766981 -9.054892 1.841663 2.555289 -32.383089 -3.913238 0.040775 -4.007350 2.270595 19.879422 49.847708 0.000000 0.000000 0.000000 6.901042 8.319278 -7.633500 0.447518 -5.906798 -33.035745 3.813750 0.395124 -3.251549 -3.002019 -19.958751 51.184730 0.000000 0.000000 0.000000 -2.394671 0.866159 26.599966 0.019476 0.922203 -1.856556 3.033780 0.512447 1.211721 -6.716324 0.440391 -14.481839 4.605891 0.892955 17.648586 0.916700 0.454500 12.041400 5.248396 -18.115981 -0.203501 5.489953 -35.673872 18.278437 22.630684 -30.433523 -14.223298 -3.584760 6.371090 18.408498 42.393552 -21.341954 -25.698500 -7.125000 0.000000 0.000000 10.498400 -5.227300 -11.600000 -1.552352 18.707330 1.398529 -10.416594 31.680317 22.658468 -28.698325 34.485892 -15.666458 6.590285 7.161485 4.556321 -23.411231 -17.529508 13.372600 7.125000 0.000000 0.000000 -0.099700 -57.909700 0.031500 
12.669483 16.339091 -11.187409 2.569695 0.296427 -0.966724 -11.051415 -8.784280 -9.063214 1.793929 2.506713 -32.410621 -3.929812 0.036845 -4.005478 2.260302 19.857594 49.807296 0.000000 0.000000 0.000000 6.864818 8.329449 -7.644220 0.412000 -5.943315 -33.061619 3.798442 0.394406 -3.263867 -3.008805 -19.971895 51.201079 0.000000 0.000000 0.000000 -2.429531 0.815752 26.739729 0.037465 0.845509 -1.864903 3.030456 0.486231 1.094017 -6.690204 0.450676 -14.365566 4.563245 0.887358 17.577742 0.875400 0.453700 11.937500 5.236955 -18.148322 -0.168335 5.486764 -35.561617 18.239939 22.598646 -30.400437 -14.240460 -3.574453 6.401509 18.496748 42.410986 -21.415700 -25.795000 -7.125000 0.000000 0.000000 10.487400 -5.353900 -11.608500 -1.544482 18.738124 1.339267 -10.287578 31.736689 22.680968 -28.787799 34.548337 -15.727700 6.621923 7.057697 4.728136 -23.572279 -17.430936 13.375400 7.125000 0.000000 0.000000 -0.351300 -57.752900 0.109700 
